# xmcd CD database file
#
# Track frame offsets:
#	150
#	11258
#	23463
#	32183
#	50213
#	54045
#	67690
#	79675
#	86627
#	90095
#	103605
#	111215
#	124369
#	131032
#	137037
#	142920
#	174359
#	179680
#	194254
#	207620
#	213778
#	221798
#
# Disc length: 3041 seconds
#
# Revision: 0
# Processed by: cddbd v1.5.2PL0 Copyright (c) Steve Scherf et al.
# Submitted via: CDex 1.79
#
DISCID=2f0bdf16
DTITLE=Louis Malle - Movie Music
DYEAR=1900
DGENRE=Jazz
TTITLE0=Milou en mai - Debut
TTITLE1=Le Testament
TTITLE2=Greve
TTITLE3=Mai 68
TTITLE4=Condoleances
TTITLE5=Fin
TTITLE6=Zazie dans le Metro - Debut
TTITLE7=Visite de Paris
TTITLE8=Institutrice
TTITLE9=Traversee de Paris
TTITLE10=Fin
TTITLE11=Le Souffle au Coeur - Debut
TTITLE12=Dialogiuyes etc
TTITLE13=Musique
TTITLE14=Confession
TTITLE15=Fetes anniversaires
TTITLE16=Fin
TTITLE17=Lacombe Lucien - Debut
TTITLE18=Dialogues
TTITLE19=Chez M Thorn
TTITLE20=Surprise Partie
TTITLE21=Fin
EXTD=
EXTT0=
EXTT1=
EXTT2=
EXTT3=
EXTT4=
EXTT5=
EXTT6=
EXTT7=
EXTT8=
EXTT9=
EXTT10=
EXTT11=
EXTT12=
EXTT13=
EXTT14=
EXTT15=
EXTT16=
EXTT17=
EXTT18=
EXTT19=
EXTT20=
EXTT21=
PLAYORDER=
